<?xml version="1.0" encoding="UTF-8" standalone="no"?>
<!-- Created with Inkscape (http://www.inkscape.org/) -->
<svg
   xmlns:svg="http://www.w3.org/2000/svg"
   xmlns="http://www.w3.org/2000/svg"
   version="1.0"
   width="55"
   height="55"
   id="svg2">
  <defs
     id="defs4" />
  <path
     d="M 20.008188,13.743464 C 19.580112,13.743464 19.167547,13.823477 18.796472,13.970765 C 17.683246,14.412631 16.906195,15.448381 16.906195,16.652875 L 16.906195,38.473428 C 16.906195,40.079424 18.295892,41.382837 20.008188,41.382837 C 20.489429,41.382837 20.958718,41.293773 21.365304,41.110084 L 41.479757,30.199802 C 42.406563,29.697927 42.952256,28.82078 43.030749,27.881365 C 43.031959,27.866912 43.046447,27.47828 43.030749,27.290396 C 42.952256,26.350979 42.406563,25.428377 41.479757,24.926499 C 41.479757,24.926499 21.501217,14.07763 21.365304,14.016223 C 21.16201,13.924376 20.963514,13.879615 20.735215,13.834384 C 20.50102,13.781323 20.25968,13.743464 20.008188,13.743464 z "
     style="opacity:1;fill:#aaaaaa;fill-opacity:1;fill-rule:nonzero;stroke:#6a6a6a;stroke-width:3;stroke-linecap:butt;stroke-linejoin:miter;stroke-miterlimit:1;stroke-dasharray:none;stroke-opacity:1"
     id="path3410" />
</svg>
